<?xml version="1.0" encoding="utf-8" standalone="no"?>
<!DOCTYPE svg PUBLIC "-//W3C//DTD SVG 1.1//EN"
  "http://www.w3.org/Graphics/SVG/1.1/DTD/svg11.dtd">
<!-- Created with matplotlib (https://matplotlib.org/) -->
<svg height="360pt" version="1.1" viewBox="0 0 834.875 360" width="834.875pt" xmlns="http://www.w3.org/2000/svg" xmlns:xlink="http://www.w3.org/1999/xlink">
 <metadata>
  <rdf:RDF xmlns:cc="http://creativecommons.org/ns#" xmlns:dc="http://purl.org/dc/elements/1.1/" xmlns:rdf="http://www.w3.org/1999/02/22-rdf-syntax-ns#">
   <cc:Work>
    <dc:type rdf:resource="http://purl.org/dc/dcmitype/StillImage"/>
    <dc:date>2020-10-29T22:48:06.862398</dc:date>
    <dc:format>image/svg+xml</dc:format>
    <dc:creator>
     <cc:Agent>
      <dc:title>Matplotlib v3.3.1, https://matplotlib.org/</dc:title>
     </cc:Agent>
    </dc:creator>
   </cc:Work>
  </rdf:RDF>
 </metadata>
 <defs>
  <style type="text/css">*{stroke-linecap:butt;stroke-linejoin:round;}</style>
 </defs>
 <g id="figure_1">
  <g id="patch_1">
   <path d="M 0 360 
L 834.875 360 
L 834.875 0 
L 0 0 
z
" style="fill:none;"/>
  </g>
  <g id="axes_1">
   <g id="patch_2">
    <path d="M 168.917244 332.2 
L 429.043935 332.2 
L 429.043935 24.8 
L 168.917244 24.8 
z
" style="fill:#ffffff;"/>
   </g>
   <g id="patch_3">
    <path clip-path="url(#p93aded92c2)" d="M 168.917244 29.923333 
L 208.498466 29.923333 
L 208.498466 40.17 
L 168.917244 40.17 
z
" style="fill:#436988;"/>
   </g>
   <g id="patch_4">
    <path clip-path="url(#p93aded92c2)" d="M 168.917244 81.156667 
L 209.384215 81.156667 
L 209.384215 91.403333 
L 168.917244 91.403333 
z
" style="fill:#436988;"/>
   </g>
   <g id="patch_5">
    <path clip-path="url(#p93aded92c2)" d="M 168.917244 132.39 
L 217.489587 132.39 
L 217.489587 142.636667 
L 168.917244 142.636667 
z
" style="fill:#436988;"/>
   </g>
   <g id="patch_6">
    <path clip-path="url(#p93aded92c2)" d="M 168.917244 183.623333 
L 245.258207 183.623333 
L 245.258207 193.87 
L 168.917244 193.87 
z
" style="fill:#436988;"/>
   </g>
   <g id="patch_7">
    <path clip-path="url(#p93aded92c2)" d="M 168.917244 234.856667 
L 201.078616 234.856667 
L 201.078616 245.103333 
L 168.917244 245.103333 
z
" style="fill:#436988;"/>
   </g>
   <g id="patch_8">
    <path clip-path="url(#p93aded92c2)" d="M 168.917244 286.09 
L 345.224651 286.09 
L 345.224651 296.336667 
L 168.917244 296.336667 
z
" style="fill:#436988;"/>
   </g>
   <g id="patch_9">
    <path clip-path="url(#p93aded92c2)" d="M 168.917244 40.17 
L 284.765542 40.17 
L 284.765542 50.416667 
L 168.917244 50.416667 
z
" style="fill:#808080;"/>
   </g>
   <g id="patch_10">
    <path clip-path="url(#p93aded92c2)" d="M 168.917244 91.403333 
L 290.27103 91.403333 
L 290.27103 101.65 
L 168.917244 101.65 
z
" style="fill:#808080;"/>
   </g>
   <g id="patch_11">
    <path clip-path="url(#p93aded92c2)" d="M 168.917244 142.636667 
L 262.288714 142.636667 
L 262.288714 152.883333 
L 168.917244 152.883333 
z
" style="fill:#808080;"/>
   </g>
   <g id="patch_12">
    <path clip-path="url(#p93aded92c2)" d="M 168.917244 193.87 
L 311.570705 193.87 
L 311.570705 204.116667 
L 168.917244 204.116667 
z
" style="fill:#808080;"/>
   </g>
   <g id="patch_13">
    <path clip-path="url(#p93aded92c2)" d="M 168.917244 245.103333 
L 263.738986 245.103333 
L 263.738986 255.35 
L 168.917244 255.35 
z
" style="fill:#808080;"/>
   </g>
   <g id="patch_14">
    <path clip-path="url(#p93aded92c2)" d="M 168.917244 296.336667 
L 365.288239 296.336667 
L 365.288239 306.583333 
L 168.917244 306.583333 
z
" style="fill:#808080;"/>
   </g>
   <g id="patch_15">
    <path clip-path="url(#p93aded92c2)" d="M 168.917244 50.416667 
L 363.649078 50.416667 
L 363.649078 60.663333 
L 168.917244 60.663333 
z
" style="fill:#a9a9a9;"/>
   </g>
   <g id="patch_16">
    <path clip-path="url(#p93aded92c2)" d="M 168.917244 101.65 
L 368.838904 101.65 
L 368.838904 111.896667 
L 168.917244 111.896667 
z
" style="fill:#a9a9a9;"/>
   </g>
   <g id="patch_17">
    <path clip-path="url(#p93aded92c2)" d="M 168.917244 152.883333 
L 374.098263 152.883333 
L 374.098263 163.13 
L 168.917244 163.13 
z
" style="fill:#a9a9a9;"/>
   </g>
   <g id="patch_18">
    <path clip-path="url(#p93aded92c2)" d="M 168.917244 204.116667 
L 399.990487 204.116667 
L 399.990487 214.363333 
L 168.917244 214.363333 
z
" style="fill:#a9a9a9;"/>
   </g>
   <g id="patch_19">
    <path clip-path="url(#p93aded92c2)" d="M 168.917244 255.35 
L 387.891064 255.35 
L 387.891064 265.596667 
L 168.917244 265.596667 
z
" style="fill:#a9a9a9;"/>
   </g>
   <g id="patch_20">
    <path clip-path="url(#p93aded92c2)" d="M 168.917244 306.583333 
L 406.578955 306.583333 
L 406.578955 316.83 
L 168.917244 316.83 
z
" style="fill:#a9a9a9;"/>
   </g>
   <g id="patch_21">
    <path clip-path="url(#p93aded92c2)" d="M 168.917244 60.663333 
L 380.925178 60.663333 
L 380.925178 70.91 
L 168.917244 70.91 
z
" style="fill:#d3d3d3;"/>
   </g>
   <g id="patch_22">
    <path clip-path="url(#p93aded92c2)" d="M 168.917244 111.896667 
L 385.823572 111.896667 
L 385.823572 122.143333 
L 168.917244 122.143333 
z
" style="fill:#d3d3d3;"/>
   </g>
   <g id="patch_23">
    <path clip-path="url(#p93aded92c2)" d="M 168.917244 163.13 
L 385.87828 163.13 
L 385.87828 173.376667 
L 168.917244 173.376667 
z
" style="fill:#d3d3d3;"/>
   </g>
   <g id="patch_24">
    <path clip-path="url(#p93aded92c2)" d="M 168.917244 214.363333 
L 406.667176 214.363333 
L 406.667176 224.61 
L 168.917244 224.61 
z
" style="fill:#d3d3d3;"/>
   </g>
   <g id="patch_25">
    <path clip-path="url(#p93aded92c2)" d="M 168.917244 265.596667 
L 393.077424 265.596667 
L 393.077424 275.843333 
L 168.917244 275.843333 
z
" style="fill:#d3d3d3;"/>
   </g>
   <g id="patch_26">
    <path clip-path="url(#p93aded92c2)" d="M 168.917244 316.83 
L 394.435325 316.83 
L 394.435325 327.076667 
L 168.917244 327.076667 
z
" style="fill:#d3d3d3;"/>
   </g>
   <g id="matplotlib.axis_1">
    <g id="xtick_1">
     <g id="line2d_1">
      <defs>
       <path d="M 0 0 
L 0 3.5 
" id="m5f31fe59fb" style="stroke:#000000;stroke-width:0.8;"/>
      </defs>
      <g>
       <use style="stroke:#000000;stroke-width:0.8;" x="168.917244" xlink:href="#m5f31fe59fb" y="332.2"/>
      </g>
     </g>
     <g id="text_1">
      <!-- 0 -->
      <g transform="translate(165.735994 346.798438)scale(0.1 -0.1)">
       <defs>
        <path d="M 31.78125 66.40625 
Q 24.171875 66.40625 20.328125 58.90625 
Q 16.5 51.421875 16.5 36.375 
Q 16.5 21.390625 20.328125 13.890625 
Q 24.171875 6.390625 31.78125 6.390625 
Q 39.453125 6.390625 43.28125 13.890625 
Q 47.125 21.390625 47.125 36.375 
Q 47.125 51.421875 43.28125 58.90625 
Q 39.453125 66.40625 31.78125 66.40625 
z
M 31.78125 74.21875 
Q 44.046875 74.21875 50.515625 64.515625 
Q 56.984375 54.828125 56.984375 36.375 
Q 56.984375 17.96875 50.515625 8.265625 
Q 44.046875 -1.421875 31.78125 -1.421875 
Q 19.53125 -1.421875 13.0625 8.265625 
Q 6.59375 17.96875 6.59375 36.375 
Q 6.59375 54.828125 13.0625 64.515625 
Q 19.53125 74.21875 31.78125 74.21875 
z
" id="DejaVuSans-48"/>
       </defs>
       <use xlink:href="#DejaVuSans-48"/>
      </g>
     </g>
    </g>
    <g id="xtick_2">
     <g id="line2d_2">
      <g>
       <use style="stroke:#000000;stroke-width:0.8;" x="220.799595" xlink:href="#m5f31fe59fb" y="332.2"/>
      </g>
     </g>
     <g id="text_2">
      <!-- 20 -->
      <g transform="translate(214.437095 346.798438)scale(0.1 -0.1)">
       <defs>
        <path d="M 19.1875 8.296875 
L 53.609375 8.296875 
L 53.609375 0 
L 7.328125 0 
L 7.328125 8.296875 
Q 12.9375 14.109375 22.625 23.890625 
Q 32.328125 33.6875 34.8125 36.53125 
Q 39.546875 41.84375 41.421875 45.53125 
Q 43.3125 49.21875 43.3125 52.78125 
Q 43.3125 58.59375 39.234375 62.25 
Q 35.15625 65.921875 28.609375 65.921875 
Q 23.96875 65.921875 18.8125 64.3125 
Q 13.671875 62.703125 7.8125 59.421875 
L 7.8125 69.390625 
Q 13.765625 71.78125 18.9375 73 
Q 24.125 74.21875 28.421875 74.21875 
Q 39.75 74.21875 46.484375 68.546875 
Q 53.21875 62.890625 53.21875 53.421875 
Q 53.21875 48.921875 51.53125 44.890625 
Q 49.859375 40.875 45.40625 35.40625 
Q 44.1875 33.984375 37.640625 27.21875 
Q 31.109375 20.453125 19.1875 8.296875 
z
" id="DejaVuSans-50"/>
       </defs>
       <use xlink:href="#DejaVuSans-50"/>
       <use x="63.623047" xlink:href="#DejaVuSans-48"/>
      </g>
     </g>
    </g>
    <g id="xtick_3">
     <g id="line2d_3">
      <g>
       <use style="stroke:#000000;stroke-width:0.8;" x="272.681946" xlink:href="#m5f31fe59fb" y="332.2"/>
      </g>
     </g>
     <g id="text_3">
      <!-- 40 -->
      <g transform="translate(266.319446 346.798438)scale(0.1 -0.1)">
       <defs>
        <path d="M 37.796875 64.3125 
L 12.890625 25.390625 
L 37.796875 25.390625 
z
M 35.203125 72.90625 
L 47.609375 72.90625 
L 47.609375 25.390625 
L 58.015625 25.390625 
L 58.015625 17.1875 
L 47.609375 17.1875 
L 47.609375 0 
L 37.796875 0 
L 37.796875 17.1875 
L 4.890625 17.1875 
L 4.890625 26.703125 
z
" id="DejaVuSans-52"/>
       </defs>
       <use xlink:href="#DejaVuSans-52"/>
       <use x="63.623047" xlink:href="#DejaVuSans-48"/>
      </g>
     </g>
    </g>
    <g id="xtick_4">
     <g id="line2d_4">
      <g>
       <use style="stroke:#000000;stroke-width:0.8;" x="324.564297" xlink:href="#m5f31fe59fb" y="332.2"/>
      </g>
     </g>
     <g id="text_4">
      <!-- 60 -->
      <g transform="translate(318.201797 346.798438)scale(0.1 -0.1)">
       <defs>
        <path d="M 33.015625 40.375 
Q 26.375 40.375 22.484375 35.828125 
Q 18.609375 31.296875 18.609375 23.390625 
Q 18.609375 15.53125 22.484375 10.953125 
Q 26.375 6.390625 33.015625 6.390625 
Q 39.65625 6.390625 43.53125 10.953125 
Q 47.40625 15.53125 47.40625 23.390625 
Q 47.40625 31.296875 43.53125 35.828125 
Q 39.65625 40.375 33.015625 40.375 
z
M 52.59375 71.296875 
L 52.59375 62.3125 
Q 48.875 64.0625 45.09375 64.984375 
Q 41.3125 65.921875 37.59375 65.921875 
Q 27.828125 65.921875 22.671875 59.328125 
Q 17.53125 52.734375 16.796875 39.40625 
Q 19.671875 43.65625 24.015625 45.921875 
Q 28.375 48.1875 33.59375 48.1875 
Q 44.578125 48.1875 50.953125 41.515625 
Q 57.328125 34.859375 57.328125 23.390625 
Q 57.328125 12.15625 50.6875 5.359375 
Q 44.046875 -1.421875 33.015625 -1.421875 
Q 20.359375 -1.421875 13.671875 8.265625 
Q 6.984375 17.96875 6.984375 36.375 
Q 6.984375 53.65625 15.1875 63.9375 
Q 23.390625 74.21875 37.203125 74.21875 
Q 40.921875 74.21875 44.703125 73.484375 
Q 48.484375 72.75 52.59375 71.296875 
z
" id="DejaVuSans-54"/>
       </defs>
       <use xlink:href="#DejaVuSans-54"/>
       <use x="63.623047" xlink:href="#DejaVuSans-48"/>
      </g>
     </g>
    </g>
    <g id="xtick_5">
     <g id="line2d_5">
      <g>
       <use style="stroke:#000000;stroke-width:0.8;" x="376.446649" xlink:href="#m5f31fe59fb" y="332.2"/>
      </g>
     </g>
     <g id="text_5">
      <!-- 80 -->
      <g transform="translate(370.084149 346.798438)scale(0.1 -0.1)">
       <defs>
        <path d="M 31.78125 34.625 
Q 24.75 34.625 20.71875 30.859375 
Q 16.703125 27.09375 16.703125 20.515625 
Q 16.703125 13.921875 20.71875 10.15625 
Q 24.75 6.390625 31.78125 6.390625 
Q 38.8125 6.390625 42.859375 10.171875 
Q 46.921875 13.96875 46.921875 20.515625 
Q 46.921875 27.09375 42.890625 30.859375 
Q 38.875 34.625 31.78125 34.625 
z
M 21.921875 38.8125 
Q 15.578125 40.375 12.03125 44.71875 
Q 8.5 49.078125 8.5 55.328125 
Q 8.5 64.0625 14.71875 69.140625 
Q 20.953125 74.21875 31.78125 74.21875 
Q 42.671875 74.21875 48.875 69.140625 
Q 55.078125 64.0625 55.078125 55.328125 
Q 55.078125 49.078125 51.53125 44.71875 
Q 48 40.375 41.703125 38.8125 
Q 48.828125 37.15625 52.796875 32.3125 
Q 56.78125 27.484375 56.78125 20.515625 
Q 56.78125 9.90625 50.3125 4.234375 
Q 43.84375 -1.421875 31.78125 -1.421875 
Q 19.734375 -1.421875 13.25 4.234375 
Q 6.78125 9.90625 6.78125 20.515625 
Q 6.78125 27.484375 10.78125 32.3125 
Q 14.796875 37.15625 21.921875 38.8125 
z
M 18.3125 54.390625 
Q 18.3125 48.734375 21.84375 45.5625 
Q 25.390625 42.390625 31.78125 42.390625 
Q 38.140625 42.390625 41.71875 45.5625 
Q 45.3125 48.734375 45.3125 54.390625 
Q 45.3125 60.0625 41.71875 63.234375 
Q 38.140625 66.40625 31.78125 66.40625 
Q 25.390625 66.40625 21.84375 63.234375 
Q 18.3125 60.0625 18.3125 54.390625 
z
" id="DejaVuSans-56"/>
       </defs>
       <use xlink:href="#DejaVuSans-56"/>
       <use x="63.623047" xlink:href="#DejaVuSans-48"/>
      </g>
     </g>
    </g>
    <g id="xtick_6">
     <g id="line2d_6">
      <g>
       <use style="stroke:#000000;stroke-width:0.8;" x="428.329" xlink:href="#m5f31fe59fb" y="332.2"/>
      </g>
     </g>
     <g id="text_6">
      <!-- 100 -->
      <g transform="translate(418.78525 346.798438)scale(0.1 -0.1)">
       <defs>
        <path d="M 12.40625 8.296875 
L 28.515625 8.296875 
L 28.515625 63.921875 
L 10.984375 60.40625 
L 10.984375 69.390625 
L 28.421875 72.90625 
L 38.28125 72.90625 
L 38.28125 8.296875 
L 54.390625 8.296875 
L 54.390625 0 
L 12.40625 0 
z
" id="DejaVuSans-49"/>
       </defs>
       <use xlink:href="#DejaVuSans-49"/>
       <use x="63.623047" xlink:href="#DejaVuSans-48"/>
       <use x="127.246094" xlink:href="#DejaVuSans-48"/>
      </g>
     </g>
    </g>
    <g id="text_7">
     <!-- mse -->
     <g transform="translate(288.429027 360.476562)scale(0.1 -0.1)">
      <defs>
       <path d="M 52 44.1875 
Q 55.375 50.25 60.0625 53.125 
Q 64.75 56 71.09375 56 
Q 79.640625 56 84.28125 50.015625 
Q 88.921875 44.046875 88.921875 33.015625 
L 88.921875 0 
L 79.890625 0 
L 79.890625 32.71875 
Q 79.890625 40.578125 77.09375 44.375 
Q 74.3125 48.1875 68.609375 48.1875 
Q 61.625 48.1875 57.5625 43.546875 
Q 53.515625 38.921875 53.515625 30.90625 
L 53.515625 0 
L 44.484375 0 
L 44.484375 32.71875 
Q 44.484375 40.625 41.703125 44.40625 
Q 38.921875 48.1875 33.109375 48.1875 
Q 26.21875 48.1875 22.15625 43.53125 
Q 18.109375 38.875 18.109375 30.90625 
L 18.109375 0 
L 9.078125 0 
L 9.078125 54.6875 
L 18.109375 54.6875 
L 18.109375 46.1875 
Q 21.1875 51.21875 25.484375 53.609375 
Q 29.78125 56 35.6875 56 
Q 41.65625 56 45.828125 52.96875 
Q 50 49.953125 52 44.1875 
z
" id="DejaVuSans-109"/>
       <path d="M 44.28125 53.078125 
L 44.28125 44.578125 
Q 40.484375 46.53125 36.375 47.5 
Q 32.28125 48.484375 27.875 48.484375 
Q 21.1875 48.484375 17.84375 46.4375 
Q 14.5 44.390625 14.5 40.28125 
Q 14.5 37.15625 16.890625 35.375 
Q 19.28125 33.59375 26.515625 31.984375 
L 29.59375 31.296875 
Q 39.15625 29.25 43.1875 25.515625 
Q 47.21875 21.78125 47.21875 15.09375 
Q 47.21875 7.46875 41.1875 3.015625 
Q 35.15625 -1.421875 24.609375 -1.421875 
Q 20.21875 -1.421875 15.453125 -0.5625 
Q 10.6875 0.296875 5.421875 2 
L 5.421875 11.28125 
Q 10.40625 8.6875 15.234375 7.390625 
Q 20.0625 6.109375 24.8125 6.109375 
Q 31.15625 6.109375 34.5625 8.28125 
Q 37.984375 10.453125 37.984375 14.40625 
Q 37.984375 18.0625 35.515625 20.015625 
Q 33.0625 21.96875 24.703125 23.78125 
L 21.578125 24.515625 
Q 13.234375 26.265625 9.515625 29.90625 
Q 5.8125 33.546875 5.8125 39.890625 
Q 5.8125 47.609375 11.28125 51.796875 
Q 16.75 56 26.8125 56 
Q 31.78125 56 36.171875 55.265625 
Q 40.578125 54.546875 44.28125 53.078125 
z
" id="DejaVuSans-115"/>
       <path d="M 56.203125 29.59375 
L 56.203125 25.203125 
L 14.890625 25.203125 
Q 15.484375 15.921875 20.484375 11.0625 
Q 25.484375 6.203125 34.421875 6.203125 
Q 39.59375 6.203125 44.453125 7.46875 
Q 49.3125 8.734375 54.109375 11.28125 
L 54.109375 2.78125 
Q 49.265625 0.734375 44.1875 -0.34375 
Q 39.109375 -1.421875 33.890625 -1.421875 
Q 20.796875 -1.421875 13.15625 6.1875 
Q 5.515625 13.8125 5.515625 26.8125 
Q 5.515625 40.234375 12.765625 48.109375 
Q 20.015625 56 32.328125 56 
Q 43.359375 56 49.78125 48.890625 
Q 56.203125 41.796875 56.203125 29.59375 
z
M 47.21875 32.234375 
Q 47.125 39.59375 43.09375 43.984375 
Q 39.0625 48.390625 32.421875 48.390625 
Q 24.90625 48.390625 20.390625 44.140625 
Q 15.875 39.890625 15.1875 32.171875 
z
" id="DejaVuSans-101"/>
      </defs>
      <use xlink:href="#DejaVuSans-109"/>
      <use x="97.412109" xlink:href="#DejaVuSans-115"/>
      <use x="149.511719" xlink:href="#DejaVuSans-101"/>
     </g>
    </g>
   </g>
   <g id="matplotlib.axis_2">
    <g id="ytick_1">
     <g id="line2d_7">
      <defs>
       <path d="M 0 0 
L -3.5 0 
" id="m0229eccbe3" style="stroke:#000000;stroke-width:0.8;"/>
      </defs>
      <g>
       <use style="stroke:#000000;stroke-width:0.8;" x="168.917244" xlink:href="#m0229eccbe3" y="50.416667"/>
      </g>
     </g>
     <g id="text_8">
      <!-- faims_all -->
      <g transform="translate(117.856306 54.215885)scale(0.1 -0.1)">
       <defs>
        <path d="M 37.109375 75.984375 
L 37.109375 68.5 
L 28.515625 68.5 
Q 23.6875 68.5 21.796875 66.546875 
Q 19.921875 64.59375 19.921875 59.515625 
L 19.921875 54.6875 
L 34.71875 54.6875 
L 34.71875 47.703125 
L 19.921875 47.703125 
L 19.921875 0 
L 10.890625 0 
L 10.890625 47.703125 
L 2.296875 47.703125 
L 2.296875 54.6875 
L 10.890625 54.6875 
L 10.890625 58.5 
Q 10.890625 67.625 15.140625 71.796875 
Q 19.390625 75.984375 28.609375 75.984375 
z
" id="DejaVuSans-102"/>
        <path d="M 34.28125 27.484375 
Q 23.390625 27.484375 19.1875 25 
Q 14.984375 22.515625 14.984375 16.5 
Q 14.984375 11.71875 18.140625 8.90625 
Q 21.296875 6.109375 26.703125 6.109375 
Q 34.1875 6.109375 38.703125 11.40625 
Q 43.21875 16.703125 43.21875 25.484375 
L 43.21875 27.484375 
z
M 52.203125 31.203125 
L 52.203125 0 
L 43.21875 0 
L 43.21875 8.296875 
Q 40.140625 3.328125 35.546875 0.953125 
Q 30.953125 -1.421875 24.3125 -1.421875 
Q 15.921875 -1.421875 10.953125 3.296875 
Q 6 8.015625 6 15.921875 
Q 6 25.140625 12.171875 29.828125 
Q 18.359375 34.515625 30.609375 34.515625 
L 43.21875 34.515625 
L 43.21875 35.40625 
Q 43.21875 41.609375 39.140625 45 
Q 35.0625 48.390625 27.6875 48.390625 
Q 23 48.390625 18.546875 47.265625 
Q 14.109375 46.140625 10.015625 43.890625 
L 10.015625 52.203125 
Q 14.9375 54.109375 19.578125 55.046875 
Q 24.21875 56 28.609375 56 
Q 40.484375 56 46.34375 49.84375 
Q 52.203125 43.703125 52.203125 31.203125 
z
" id="DejaVuSans-97"/>
        <path d="M 9.421875 54.6875 
L 18.40625 54.6875 
L 18.40625 0 
L 9.421875 0 
z
M 9.421875 75.984375 
L 18.40625 75.984375 
L 18.40625 64.59375 
L 9.421875 64.59375 
z
" id="DejaVuSans-105"/>
        <path d="M 50.984375 -16.609375 
L 50.984375 -23.578125 
L -0.984375 -23.578125 
L -0.984375 -16.609375 
z
" id="DejaVuSans-95"/>
        <path d="M 9.421875 75.984375 
L 18.40625 75.984375 
L 18.40625 0 
L 9.421875 0 
z
" id="DejaVuSans-108"/>
       </defs>
       <use xlink:href="#DejaVuSans-102"/>
       <use x="35.205078" xlink:href="#DejaVuSans-97"/>
       <use x="96.484375" xlink:href="#DejaVuSans-105"/>
       <use x="124.267578" xlink:href="#DejaVuSans-109"/>
       <use x="221.679688" xlink:href="#DejaVuSans-115"/>
       <use x="273.779297" xlink:href="#DejaVuSans-95"/>
       <use x="323.779297" xlink:href="#DejaVuSans-97"/>
       <use x="385.058594" xlink:href="#DejaVuSans-108"/>
       <use x="412.841797" xlink:href="#DejaVuSans-108"/>
      </g>
     </g>
    </g>
    <g id="ytick_2">
     <g id="line2d_8">
      <g>
       <use style="stroke:#000000;stroke-width:0.8;" x="168.917244" xlink:href="#m0229eccbe3" y="101.65"/>
      </g>
     </g>
     <g id="text_9">
      <!-- faims_structure_selection -->
      <g transform="translate(34.220369 105.449219)scale(0.1 -0.1)">
       <defs>
        <path d="M 18.3125 70.21875 
L 18.3125 54.6875 
L 36.8125 54.6875 
L 36.8125 47.703125 
L 18.3125 47.703125 
L 18.3125 18.015625 
Q 18.3125 11.328125 20.140625 9.421875 
Q 21.96875 7.515625 27.59375 7.515625 
L 36.8125 7.515625 
L 36.8125 0 
L 27.59375 0 
Q 17.1875 0 13.234375 3.875 
Q 9.28125 7.765625 9.28125 18.015625 
L 9.28125 47.703125 
L 2.6875 47.703125 
L 2.6875 54.6875 
L 9.28125 54.6875 
L 9.28125 70.21875 
z
" id="DejaVuSans-116"/>
        <path d="M 41.109375 46.296875 
Q 39.59375 47.171875 37.8125 47.578125 
Q 36.03125 48 33.890625 48 
Q 26.265625 48 22.1875 43.046875 
Q 18.109375 38.09375 18.109375 28.8125 
L 18.109375 0 
L 9.078125 0 
L 9.078125 54.6875 
L 18.109375 54.6875 
L 18.109375 46.1875 
Q 20.953125 51.171875 25.484375 53.578125 
Q 30.03125 56 36.53125 56 
Q 37.453125 56 38.578125 55.875 
Q 39.703125 55.765625 41.0625 55.515625 
z
" id="DejaVuSans-114"/>
        <path d="M 8.5 21.578125 
L 8.5 54.6875 
L 17.484375 54.6875 
L 17.484375 21.921875 
Q 17.484375 14.15625 20.5 10.265625 
Q 23.53125 6.390625 29.59375 6.390625 
Q 36.859375 6.390625 41.078125 11.03125 
Q 45.3125 15.671875 45.3125 23.6875 
L 45.3125 54.6875 
L 54.296875 54.6875 
L 54.296875 0 
L 45.3125 0 
L 45.3125 8.40625 
Q 42.046875 3.421875 37.71875 1 
Q 33.40625 -1.421875 27.6875 -1.421875 
Q 18.265625 -1.421875 13.375 4.4375 
Q 8.5 10.296875 8.5 21.578125 
z
M 31.109375 56 
z
" id="DejaVuSans-117"/>
        <path d="M 48.78125 52.59375 
L 48.78125 44.1875 
Q 44.96875 46.296875 41.140625 47.34375 
Q 37.3125 48.390625 33.40625 48.390625 
Q 24.65625 48.390625 19.8125 42.84375 
Q 14.984375 37.3125 14.984375 27.296875 
Q 14.984375 17.28125 19.8125 11.734375 
Q 24.65625 6.203125 33.40625 6.203125 
Q 37.3125 6.203125 41.140625 7.25 
Q 44.96875 8.296875 48.78125 10.40625 
L 48.78125 2.09375 
Q 45.015625 0.34375 40.984375 -0.53125 
Q 36.96875 -1.421875 32.421875 -1.421875 
Q 20.0625 -1.421875 12.78125 6.34375 
Q 5.515625 14.109375 5.515625 27.296875 
Q 5.515625 40.671875 12.859375 48.328125 
Q 20.21875 56 33.015625 56 
Q 37.15625 56 41.109375 55.140625 
Q 45.0625 54.296875 48.78125 52.59375 
z
" id="DejaVuSans-99"/>
        <path d="M 30.609375 48.390625 
Q 23.390625 48.390625 19.1875 42.75 
Q 14.984375 37.109375 14.984375 27.296875 
Q 14.984375 17.484375 19.15625 11.84375 
Q 23.34375 6.203125 30.609375 6.203125 
Q 37.796875 6.203125 41.984375 11.859375 
Q 46.1875 17.53125 46.1875 27.296875 
Q 46.1875 37.015625 41.984375 42.703125 
Q 37.796875 48.390625 30.609375 48.390625 
z
M 30.609375 56 
Q 42.328125 56 49.015625 48.375 
Q 55.71875 40.765625 55.71875 27.296875 
Q 55.71875 13.875 49.015625 6.21875 
Q 42.328125 -1.421875 30.609375 -1.421875 
Q 18.84375 -1.421875 12.171875 6.21875 
Q 5.515625 13.875 5.515625 27.296875 
Q 5.515625 40.765625 12.171875 48.375 
Q 18.84375 56 30.609375 56 
z
" id="DejaVuSans-111"/>
        <path d="M 54.890625 33.015625 
L 54.890625 0 
L 45.90625 0 
L 45.90625 32.71875 
Q 45.90625 40.484375 42.875 44.328125 
Q 39.84375 48.1875 33.796875 48.1875 
Q 26.515625 48.1875 22.3125 43.546875 
Q 18.109375 38.921875 18.109375 30.90625 
L 18.109375 0 
L 9.078125 0 
L 9.078125 54.6875 
L 18.109375 54.6875 
L 18.109375 46.1875 
Q 21.34375 51.125 25.703125 53.5625 
Q 30.078125 56 35.796875 56 
Q 45.21875 56 50.046875 50.171875 
Q 54.890625 44.34375 54.890625 33.015625 
z
" id="DejaVuSans-110"/>
       </defs>
       <use xlink:href="#DejaVuSans-102"/>
       <use x="35.205078" xlink:href="#DejaVuSans-97"/>
       <use x="96.484375" xlink:href="#DejaVuSans-105"/>
       <use x="124.267578" xlink:href="#DejaVuSans-109"/>
       <use x="221.679688" xlink:href="#DejaVuSans-115"/>
       <use x="273.779297" xlink:href="#DejaVuSans-95"/>
       <use x="323.779297" xlink:href="#DejaVuSans-115"/>
       <use x="375.878906" xlink:href="#DejaVuSans-116"/>
       <use x="415.087891" xlink:href="#DejaVuSans-114"/>
       <use x="456.201172" xlink:href="#DejaVuSans-117"/>
       <use x="519.580078" xlink:href="#DejaVuSans-99"/>
       <use x="574.560547" xlink:href="#DejaVuSans-116"/>
       <use x="613.769531" xlink:href="#DejaVuSans-117"/>
       <use x="677.148438" xlink:href="#DejaVuSans-114"/>
       <use x="716.011719" xlink:href="#DejaVuSans-101"/>
       <use x="777.535156" xlink:href="#DejaVuSans-95"/>
       <use x="827.535156" xlink:href="#DejaVuSans-115"/>
       <use x="879.634766" xlink:href="#DejaVuSans-101"/>
       <use x="941.158203" xlink:href="#DejaVuSans-108"/>
       <use x="968.941406" xlink:href="#DejaVuSans-101"/>
       <use x="1030.464844" xlink:href="#DejaVuSans-99"/>
       <use x="1085.445312" xlink:href="#DejaVuSans-116"/>
       <use x="1124.654297" xlink:href="#DejaVuSans-105"/>
       <use x="1152.4375" xlink:href="#DejaVuSans-111"/>
       <use x="1213.619141" xlink:href="#DejaVuSans-110"/>
      </g>
     </g>
    </g>
    <g id="ytick_3">
     <g id="line2d_9">
      <g>
       <use style="stroke:#000000;stroke-width:0.8;" x="168.917244" xlink:href="#m0229eccbe3" y="152.883333"/>
      </g>
     </g>
     <g id="text_10">
      <!-- faims_structure -->
      <g transform="translate(84.167244 156.682552)scale(0.1 -0.1)">
       <use xlink:href="#DejaVuSans-102"/>
       <use x="35.205078" xlink:href="#DejaVuSans-97"/>
       <use x="96.484375" xlink:href="#DejaVuSans-105"/>
       <use x="124.267578" xlink:href="#DejaVuSans-109"/>
       <use x="221.679688" xlink:href="#DejaVuSans-115"/>
       <use x="273.779297" xlink:href="#DejaVuSans-95"/>
       <use x="323.779297" xlink:href="#DejaVuSans-115"/>
       <use x="375.878906" xlink:href="#DejaVuSans-116"/>
       <use x="415.087891" xlink:href="#DejaVuSans-114"/>
       <use x="456.201172" xlink:href="#DejaVuSans-117"/>
       <use x="519.580078" xlink:href="#DejaVuSans-99"/>
       <use x="574.560547" xlink:href="#DejaVuSans-116"/>
       <use x="613.769531" xlink:href="#DejaVuSans-117"/>
       <use x="677.148438" xlink:href="#DejaVuSans-114"/>
       <use x="716.011719" xlink:href="#DejaVuSans-101"/>
      </g>
     </g>
    </g>
    <g id="ytick_4">
     <g id="line2d_10">
      <g>
       <use style="stroke:#000000;stroke-width:0.8;" x="168.917244" xlink:href="#m0229eccbe3" y="204.116667"/>
      </g>
     </g>
     <g id="text_11">
      <!-- faims_small -->
      <g transform="translate(102.906306 207.915885)scale(0.1 -0.1)">
       <use xlink:href="#DejaVuSans-102"/>
       <use x="35.205078" xlink:href="#DejaVuSans-97"/>
       <use x="96.484375" xlink:href="#DejaVuSans-105"/>
       <use x="124.267578" xlink:href="#DejaVuSans-109"/>
       <use x="221.679688" xlink:href="#DejaVuSans-115"/>
       <use x="273.779297" xlink:href="#DejaVuSans-95"/>
       <use x="323.779297" xlink:href="#DejaVuSans-115"/>
       <use x="375.878906" xlink:href="#DejaVuSans-109"/>
       <use x="473.291016" xlink:href="#DejaVuSans-97"/>
       <use x="534.570312" xlink:href="#DejaVuSans-108"/>
       <use x="562.353516" xlink:href="#DejaVuSans-108"/>
      </g>
     </g>
    </g>
    <g id="ytick_5">
     <g id="line2d_11">
      <g>
       <use style="stroke:#000000;stroke-width:0.8;" x="168.917244" xlink:href="#m0229eccbe3" y="255.35"/>
      </g>
     </g>
     <g id="text_12">
      <!-- faims_smaller -->
      <g transform="translate(92.642244 259.149219)scale(0.1 -0.1)">
       <use xlink:href="#DejaVuSans-102"/>
       <use x="35.205078" xlink:href="#DejaVuSans-97"/>
       <use x="96.484375" xlink:href="#DejaVuSans-105"/>
       <use x="124.267578" xlink:href="#DejaVuSans-109"/>
       <use x="221.679688" xlink:href="#DejaVuSans-115"/>
       <use x="273.779297" xlink:href="#DejaVuSans-95"/>
       <use x="323.779297" xlink:href="#DejaVuSans-115"/>
       <use x="375.878906" xlink:href="#DejaVuSans-109"/>
       <use x="473.291016" xlink:href="#DejaVuSans-97"/>
       <use x="534.570312" xlink:href="#DejaVuSans-108"/>
       <use x="562.353516" xlink:href="#DejaVuSans-108"/>
       <use x="590.136719" xlink:href="#DejaVuSans-101"/>
       <use x="651.660156" xlink:href="#DejaVuSans-114"/>
      </g>
     </g>
    </g>
    <g id="ytick_6">
     <g id="line2d_12">
      <g>
       <use style="stroke:#000000;stroke-width:0.8;" x="168.917244" xlink:href="#m0229eccbe3" y="306.583333"/>
      </g>
     </g>
     <g id="text_13">
      <!-- faims_minimal -->
      <g transform="translate(89.259431 310.382552)scale(0.1 -0.1)">
       <use xlink:href="#DejaVuSans-102"/>
       <use x="35.205078" xlink:href="#DejaVuSans-97"/>
       <use x="96.484375" xlink:href="#DejaVuSans-105"/>
       <use x="124.267578" xlink:href="#DejaVuSans-109"/>
       <use x="221.679688" xlink:href="#DejaVuSans-115"/>
       <use x="273.779297" xlink:href="#DejaVuSans-95"/>
       <use x="323.779297" xlink:href="#DejaVuSans-109"/>
       <use x="421.191406" xlink:href="#DejaVuSans-105"/>
       <use x="448.974609" xlink:href="#DejaVuSans-110"/>
       <use x="512.353516" xlink:href="#DejaVuSans-105"/>
       <use x="540.136719" xlink:href="#DejaVuSans-109"/>
       <use x="637.548828" xlink:href="#DejaVuSans-97"/>
       <use x="698.828125" xlink:href="#DejaVuSans-108"/>
      </g>
     </g>
    </g>
    <g id="text_14">
     <!-- setting -->
     <g transform="translate(28.140681 195.833594)rotate(-90)scale(0.1 -0.1)">
      <defs>
       <path d="M 45.40625 27.984375 
Q 45.40625 37.75 41.375 43.109375 
Q 37.359375 48.484375 30.078125 48.484375 
Q 22.859375 48.484375 18.828125 43.109375 
Q 14.796875 37.75 14.796875 27.984375 
Q 14.796875 18.265625 18.828125 12.890625 
Q 22.859375 7.515625 30.078125 7.515625 
Q 37.359375 7.515625 41.375 12.890625 
Q 45.40625 18.265625 45.40625 27.984375 
z
M 54.390625 6.78125 
Q 54.390625 -7.171875 48.1875 -13.984375 
Q 42 -20.796875 29.203125 -20.796875 
Q 24.46875 -20.796875 20.265625 -20.09375 
Q 16.0625 -19.390625 12.109375 -17.921875 
L 12.109375 -9.1875 
Q 16.0625 -11.328125 19.921875 -12.34375 
Q 23.78125 -13.375 27.78125 -13.375 
Q 36.625 -13.375 41.015625 -8.765625 
Q 45.40625 -4.15625 45.40625 5.171875 
L 45.40625 9.625 
Q 42.625 4.78125 38.28125 2.390625 
Q 33.9375 0 27.875 0 
Q 17.828125 0 11.671875 7.65625 
Q 5.515625 15.328125 5.515625 27.984375 
Q 5.515625 40.671875 11.671875 48.328125 
Q 17.828125 56 27.875 56 
Q 33.9375 56 38.28125 53.609375 
Q 42.625 51.21875 45.40625 46.390625 
L 45.40625 54.6875 
L 54.390625 54.6875 
z
" id="DejaVuSans-103"/>
      </defs>
      <use xlink:href="#DejaVuSans-115"/>
      <use x="52.099609" xlink:href="#DejaVuSans-101"/>
      <use x="113.623047" xlink:href="#DejaVuSans-116"/>
      <use x="152.832031" xlink:href="#DejaVuSans-116"/>
      <use x="192.041016" xlink:href="#DejaVuSans-105"/>
      <use x="219.824219" xlink:href="#DejaVuSans-110"/>
      <use x="283.203125" xlink:href="#DejaVuSans-103"/>
     </g>
    </g>
   </g>
   <g id="line2d_13">
    <path clip-path="url(#p93aded92c2)" d="M 208.021692 35.046667 
L 209.072936 35.046667 
" style="fill:none;stroke:#424242;stroke-linecap:square;stroke-width:2.7;"/>
   </g>
   <g id="line2d_14">
    <path clip-path="url(#p93aded92c2)" d="M 207.801043 86.28 
L 211.065109 86.28 
" style="fill:none;stroke:#424242;stroke-linecap:square;stroke-width:2.7;"/>
   </g>
   <g id="line2d_15">
    <path clip-path="url(#p93aded92c2)" d="M 215.844548 137.513333 
L 218.427929 137.513333 
" style="fill:none;stroke:#424242;stroke-linecap:square;stroke-width:2.7;"/>
   </g>
   <g id="line2d_16">
    <path clip-path="url(#p93aded92c2)" d="M 242.467613 188.746667 
L 246.783787 188.746667 
" style="fill:none;stroke:#424242;stroke-linecap:square;stroke-width:2.7;"/>
   </g>
   <g id="line2d_17">
    <path clip-path="url(#p93aded92c2)" d="M 200.455789 239.98 
L 202.232007 239.98 
" style="fill:none;stroke:#424242;stroke-linecap:square;stroke-width:2.7;"/>
   </g>
   <g id="line2d_18">
    <path clip-path="url(#p93aded92c2)" d="M 343.423043 291.213333 
L 346.429095 291.213333 
" style="fill:none;stroke:#424242;stroke-linecap:square;stroke-width:2.7;"/>
   </g>
   <g id="line2d_19">
    <path clip-path="url(#p93aded92c2)" d="M 279.551378 45.293333 
L 287.894049 45.293333 
" style="fill:none;stroke:#424242;stroke-linecap:square;stroke-width:2.7;"/>
   </g>
   <g id="line2d_20">
    <path clip-path="url(#p93aded92c2)" d="M 288.408248 96.526667 
L 291.838937 96.526667 
" style="fill:none;stroke:#424242;stroke-linecap:square;stroke-width:2.7;"/>
   </g>
   <g id="line2d_21">
    <path clip-path="url(#p93aded92c2)" d="M 261.23073 147.76 
L 263.651739 147.76 
" style="fill:none;stroke:#424242;stroke-linecap:square;stroke-width:2.7;"/>
   </g>
   <g id="line2d_22">
    <path clip-path="url(#p93aded92c2)" d="M 308.266351 198.993333 
L 316.50966 198.993333 
" style="fill:none;stroke:#424242;stroke-linecap:square;stroke-width:2.7;"/>
   </g>
   <g id="line2d_23">
    <path clip-path="url(#p93aded92c2)" d="M 259.738696 250.226667 
L 266.274207 250.226667 
" style="fill:none;stroke:#424242;stroke-linecap:square;stroke-width:2.7;"/>
   </g>
   <g id="line2d_24">
    <path clip-path="url(#p93aded92c2)" d="M 360.915387 301.46 
L 370.108972 301.46 
" style="fill:none;stroke:#424242;stroke-linecap:square;stroke-width:2.7;"/>
   </g>
   <g id="line2d_25">
    <path clip-path="url(#p93aded92c2)" d="M 361.129417 55.54 
L 366.45934 55.54 
" style="fill:none;stroke:#424242;stroke-linecap:square;stroke-width:2.7;"/>
   </g>
   <g id="line2d_26">
    <path clip-path="url(#p93aded92c2)" d="M 364.291492 106.773333 
L 376.757752 106.773333 
" style="fill:none;stroke:#424242;stroke-linecap:square;stroke-width:2.7;"/>
   </g>
   <g id="line2d_27">
    <path clip-path="url(#p93aded92c2)" d="M 370.364786 158.006667 
L 376.083612 158.006667 
" style="fill:none;stroke:#424242;stroke-linecap:square;stroke-width:2.7;"/>
   </g>
   <g id="line2d_28">
    <path clip-path="url(#p93aded92c2)" d="M 394.202931 209.24 
L 408.16464 209.24 
" style="fill:none;stroke:#424242;stroke-linecap:square;stroke-width:2.7;"/>
   </g>
   <g id="line2d_29">
    <path clip-path="url(#p93aded92c2)" d="M 387.007675 260.473333 
L 389.534739 260.473333 
" style="fill:none;stroke:#424242;stroke-linecap:square;stroke-width:2.7;"/>
   </g>
   <g id="line2d_30">
    <path clip-path="url(#p93aded92c2)" d="M 399.419666 311.706667 
L 410.851758 311.706667 
" style="fill:none;stroke:#424242;stroke-linecap:square;stroke-width:2.7;"/>
   </g>
   <g id="line2d_31">
    <path clip-path="url(#p93aded92c2)" d="M 379.705949 65.786667 
L 382.811854 65.786667 
" style="fill:none;stroke:#424242;stroke-linecap:square;stroke-width:2.7;"/>
   </g>
   <g id="line2d_32">
    <path clip-path="url(#p93aded92c2)" d="M 382.609957 117.02 
L 390.518549 117.02 
" style="fill:none;stroke:#424242;stroke-linecap:square;stroke-width:2.7;"/>
   </g>
   <g id="line2d_33">
    <path clip-path="url(#p93aded92c2)" d="M 380.656103 168.253333 
L 389.232406 168.253333 
" style="fill:none;stroke:#424242;stroke-linecap:square;stroke-width:2.7;"/>
   </g>
   <g id="line2d_34">
    <path clip-path="url(#p93aded92c2)" d="M 400.595055 219.486667 
L 411.754894 219.486667 
" style="fill:none;stroke:#424242;stroke-linecap:square;stroke-width:2.7;"/>
   </g>
   <g id="line2d_35">
    <path clip-path="url(#p93aded92c2)" d="M 389.395826 270.72 
L 397.395507 270.72 
" style="fill:none;stroke:#424242;stroke-linecap:square;stroke-width:2.7;"/>
   </g>
   <g id="line2d_36">
    <path clip-path="url(#p93aded92c2)" d="M 389.761681 321.953333 
L 398.462261 321.953333 
" style="fill:none;stroke:#424242;stroke-linecap:square;stroke-width:2.7;"/>
   </g>
   <g id="patch_27">
    <path d="M 168.917244 332.2 
L 168.917244 24.8 
" style="fill:none;stroke:#000000;stroke-linecap:square;stroke-linejoin:miter;stroke-width:0.8;"/>
   </g>
   <g id="patch_28">
    <path d="M 168.917244 332.2 
L 429.043935 332.2 
" style="fill:none;stroke:#000000;stroke-linecap:square;stroke-linejoin:miter;stroke-width:0.8;"/>
   </g>
   <g id="text_15">
    <!-- split = train -->
    <g transform="translate(269.457933 18.8)scale(0.1 -0.1)">
     <defs>
      <path d="M 18.109375 8.203125 
L 18.109375 -20.796875 
L 9.078125 -20.796875 
L 9.078125 54.6875 
L 18.109375 54.6875 
L 18.109375 46.390625 
Q 20.953125 51.265625 25.265625 53.625 
Q 29.59375 56 35.59375 56 
Q 45.5625 56 51.78125 48.09375 
Q 58.015625 40.1875 58.015625 27.296875 
Q 58.015625 14.40625 51.78125 6.484375 
Q 45.5625 -1.421875 35.59375 -1.421875 
Q 29.59375 -1.421875 25.265625 0.953125 
Q 20.953125 3.328125 18.109375 8.203125 
z
M 48.6875 27.296875 
Q 48.6875 37.203125 44.609375 42.84375 
Q 40.53125 48.484375 33.40625 48.484375 
Q 26.265625 48.484375 22.1875 42.84375 
Q 18.109375 37.203125 18.109375 27.296875 
Q 18.109375 17.390625 22.1875 11.75 
Q 26.265625 6.109375 33.40625 6.109375 
Q 40.53125 6.109375 44.609375 11.75 
Q 48.6875 17.390625 48.6875 27.296875 
z
" id="DejaVuSans-112"/>
      <path id="DejaVuSans-32"/>
      <path d="M 10.59375 45.40625 
L 73.1875 45.40625 
L 73.1875 37.203125 
L 10.59375 37.203125 
z
M 10.59375 25.484375 
L 73.1875 25.484375 
L 73.1875 17.1875 
L 10.59375 17.1875 
z
" id="DejaVuSans-61"/>
     </defs>
     <use xlink:href="#DejaVuSans-115"/>
     <use x="52.099609" xlink:href="#DejaVuSans-112"/>
     <use x="115.576172" xlink:href="#DejaVuSans-108"/>
     <use x="143.359375" xlink:href="#DejaVuSans-105"/>
     <use x="171.142578" xlink:href="#DejaVuSans-116"/>
     <use x="210.351562" xlink:href="#DejaVuSans-32"/>
     <use x="242.138672" xlink:href="#DejaVuSans-61"/>
     <use x="325.927734" xlink:href="#DejaVuSans-32"/>
     <use x="357.714844" xlink:href="#DejaVuSans-116"/>
     <use x="396.923828" xlink:href="#DejaVuSans-114"/>
     <use x="438.037109" xlink:href="#DejaVuSans-97"/>
     <use x="499.316406" xlink:href="#DejaVuSans-105"/>
     <use x="527.099609" xlink:href="#DejaVuSans-110"/>
    </g>
   </g>
  </g>
  <g id="axes_2">
   <g id="patch_29">
    <path d="M 451.524559 332.2 
L 711.65125 332.2 
L 711.65125 24.8 
L 451.524559 24.8 
z
" style="fill:#ffffff;"/>
   </g>
   <g id="patch_30">
    <path clip-path="url(#p9e87e1de9f)" d="M 451.524559 29.923333 
L 626.224273 29.923333 
L 626.224273 40.17 
L 451.524559 40.17 
z
" style="fill:#436988;"/>
   </g>
   <g id="patch_31">
    <path clip-path="url(#p9e87e1de9f)" d="M 451.524559 81.156667 
L 628.703626 81.156667 
L 628.703626 91.403333 
L 451.524559 91.403333 
z
" style="fill:#436988;"/>
   </g>
   <g id="patch_32">
    <path clip-path="url(#p9e87e1de9f)" d="M 451.524559 132.39 
L 633.92926 132.39 
L 633.92926 142.636667 
L 451.524559 142.636667 
z
" style="fill:#436988;"/>
   </g>
   <g id="patch_33">
    <path clip-path="url(#p9e87e1de9f)" d="M 451.524559 183.623333 
L 647.609529 183.623333 
L 647.609529 193.87 
L 451.524559 193.87 
z
" style="fill:#436988;"/>
   </g>
   <g id="patch_34">
    <path clip-path="url(#p9e87e1de9f)" d="M 451.524559 234.856667 
L 633.933258 234.856667 
L 633.933258 245.103333 
L 451.524559 245.103333 
z
" style="fill:#436988;"/>
   </g>
   <g id="patch_35">
    <path clip-path="url(#p9e87e1de9f)" d="M 451.524559 286.09 
L 677.405505 286.09 
L 677.405505 296.336667 
L 451.524559 296.336667 
z
" style="fill:#436988;"/>
   </g>
   <g id="patch_36">
    <path clip-path="url(#p9e87e1de9f)" d="M 451.524559 40.17 
L 633.881935 40.17 
L 633.881935 50.416667 
L 451.524559 50.416667 
z
" style="fill:#808080;"/>
   </g>
   <g id="patch_37">
    <path clip-path="url(#p9e87e1de9f)" d="M 451.524559 91.403333 
L 636.751877 91.403333 
L 636.751877 101.65 
L 451.524559 101.65 
z
" style="fill:#808080;"/>
   </g>
   <g id="patch_38">
    <path clip-path="url(#p9e87e1de9f)" d="M 451.524559 142.636667 
L 638.623119 142.636667 
L 638.623119 152.883333 
L 451.524559 152.883333 
z
" style="fill:#808080;"/>
   </g>
   <g id="patch_39">
    <path clip-path="url(#p9e87e1de9f)" d="M 451.524559 193.87 
L 652.975544 193.87 
L 652.975544 204.116667 
L 451.524559 204.116667 
z
" style="fill:#808080;"/>
   </g>
   <g id="patch_40">
    <path clip-path="url(#p9e87e1de9f)" d="M 451.524559 245.103333 
L 644.383428 245.103333 
L 644.383428 255.35 
L 451.524559 255.35 
z
" style="fill:#808080;"/>
   </g>
   <g id="patch_41">
    <path clip-path="url(#p9e87e1de9f)" d="M 451.524559 296.336667 
L 676.038902 296.336667 
L 676.038902 306.583333 
L 451.524559 306.583333 
z
" style="fill:#808080;"/>
   </g>
   <g id="patch_42">
    <path clip-path="url(#p9e87e1de9f)" d="M 451.524559 50.416667 
L 656.7744 50.416667 
L 656.7744 60.663333 
L 451.524559 60.663333 
z
" style="fill:#a9a9a9;"/>
   </g>
   <g id="patch_43">
    <path clip-path="url(#p9e87e1de9f)" d="M 451.524559 101.65 
L 665.229539 101.65 
L 665.229539 111.896667 
L 451.524559 111.896667 
z
" style="fill:#a9a9a9;"/>
   </g>
   <g id="patch_44">
    <path clip-path="url(#p9e87e1de9f)" d="M 451.524559 152.883333 
L 665.819684 152.883333 
L 665.819684 163.13 
L 451.524559 163.13 
z
" style="fill:#a9a9a9;"/>
   </g>
   <g id="patch_45">
    <path clip-path="url(#p9e87e1de9f)" d="M 451.524559 204.116667 
L 684.967602 204.116667 
L 684.967602 214.363333 
L 451.524559 214.363333 
z
" style="fill:#a9a9a9;"/>
   </g>
   <g id="patch_46">
    <path clip-path="url(#p9e87e1de9f)" d="M 451.524559 255.35 
L 676.332564 255.35 
L 676.332564 265.596667 
L 451.524559 265.596667 
z
" style="fill:#a9a9a9;"/>
   </g>
   <g id="patch_47">
    <path clip-path="url(#p9e87e1de9f)" d="M 451.524559 306.583333 
L 691.523354 306.583333 
L 691.523354 316.83 
L 451.524559 316.83 
z
" style="fill:#a9a9a9;"/>
   </g>
   <g id="patch_48">
    <path clip-path="url(#p9e87e1de9f)" d="M 451.524559 60.663333 
L 666.687141 60.663333 
L 666.687141 70.91 
L 451.524559 70.91 
z
" style="fill:#d3d3d3;"/>
   </g>
   <g id="patch_49">
    <path clip-path="url(#p9e87e1de9f)" d="M 451.524559 111.896667 
L 671.319098 111.896667 
L 671.319098 122.143333 
L 451.524559 122.143333 
z
" style="fill:#d3d3d3;"/>
   </g>
   <g id="patch_50">
    <path clip-path="url(#p9e87e1de9f)" d="M 451.524559 163.13 
L 672.604132 163.13 
L 672.604132 173.376667 
L 451.524559 173.376667 
z
" style="fill:#d3d3d3;"/>
   </g>
   <g id="patch_51">
    <path clip-path="url(#p9e87e1de9f)" d="M 451.524559 214.363333 
L 691.475734 214.363333 
L 691.475734 224.61 
L 451.524559 224.61 
z
" style="fill:#d3d3d3;"/>
   </g>
   <g id="patch_52">
    <path clip-path="url(#p9e87e1de9f)" d="M 451.524559 265.596667 
L 677.587142 265.596667 
L 677.587142 275.843333 
L 451.524559 275.843333 
z
" style="fill:#d3d3d3;"/>
   </g>
   <g id="patch_53">
    <path clip-path="url(#p9e87e1de9f)" d="M 451.524559 316.83 
L 686.13461 316.83 
L 686.13461 327.076667 
L 451.524559 327.076667 
z
" style="fill:#d3d3d3;"/>
   </g>
   <g id="matplotlib.axis_3">
    <g id="xtick_7">
     <g id="line2d_37">
      <g>
       <use style="stroke:#000000;stroke-width:0.8;" x="451.524559" xlink:href="#m5f31fe59fb" y="332.2"/>
      </g>
     </g>
     <g id="text_16">
      <!-- 0 -->
      <g transform="translate(448.343309 346.798438)scale(0.1 -0.1)">
       <use xlink:href="#DejaVuSans-48"/>
      </g>
     </g>
    </g>
    <g id="xtick_8">
     <g id="line2d_38">
      <g>
       <use style="stroke:#000000;stroke-width:0.8;" x="503.40691" xlink:href="#m5f31fe59fb" y="332.2"/>
      </g>
     </g>
     <g id="text_17">
      <!-- 20 -->
      <g transform="translate(497.04441 346.798438)scale(0.1 -0.1)">
       <use xlink:href="#DejaVuSans-50"/>
       <use x="63.623047" xlink:href="#DejaVuSans-48"/>
      </g>
     </g>
    </g>
    <g id="xtick_9">
     <g id="line2d_39">
      <g>
       <use style="stroke:#000000;stroke-width:0.8;" x="555.289261" xlink:href="#m5f31fe59fb" y="332.2"/>
      </g>
     </g>
     <g id="text_18">
      <!-- 40 -->
      <g transform="translate(548.926761 346.798438)scale(0.1 -0.1)">
       <use xlink:href="#DejaVuSans-52"/>
       <use x="63.623047" xlink:href="#DejaVuSans-48"/>
      </g>
     </g>
    </g>
    <g id="xtick_10">
     <g id="line2d_40">
      <g>
       <use style="stroke:#000000;stroke-width:0.8;" x="607.171612" xlink:href="#m5f31fe59fb" y="332.2"/>
      </g>
     </g>
     <g id="text_19">
      <!-- 60 -->
      <g transform="translate(600.809112 346.798438)scale(0.1 -0.1)">
       <use xlink:href="#DejaVuSans-54"/>
       <use x="63.623047" xlink:href="#DejaVuSans-48"/>
      </g>
     </g>
    </g>
    <g id="xtick_11">
     <g id="line2d_41">
      <g>
       <use style="stroke:#000000;stroke-width:0.8;" x="659.053963" xlink:href="#m5f31fe59fb" y="332.2"/>
      </g>
     </g>
     <g id="text_20">
      <!-- 80 -->
      <g transform="translate(652.691463 346.798438)scale(0.1 -0.1)">
       <use xlink:href="#DejaVuSans-56"/>
       <use x="63.623047" xlink:href="#DejaVuSans-48"/>
      </g>
     </g>
    </g>
    <g id="xtick_12">
     <g id="line2d_42">
      <g>
       <use style="stroke:#000000;stroke-width:0.8;" x="710.936315" xlink:href="#m5f31fe59fb" y="332.2"/>
      </g>
     </g>
     <g id="text_21">
      <!-- 100 -->
      <g transform="translate(701.392565 346.798438)scale(0.1 -0.1)">
       <use xlink:href="#DejaVuSans-49"/>
       <use x="63.623047" xlink:href="#DejaVuSans-48"/>
       <use x="127.246094" xlink:href="#DejaVuSans-48"/>
      </g>
     </g>
    </g>
    <g id="text_22">
     <!-- mse -->
     <g transform="translate(571.036342 360.476562)scale(0.1 -0.1)">
      <use xlink:href="#DejaVuSans-109"/>
      <use x="97.412109" xlink:href="#DejaVuSans-115"/>
      <use x="149.511719" xlink:href="#DejaVuSans-101"/>
     </g>
    </g>
   </g>
   <g id="matplotlib.axis_4">
    <g id="ytick_7">
     <g id="line2d_43">
      <g>
       <use style="stroke:#000000;stroke-width:0.8;" x="451.524559" xlink:href="#m0229eccbe3" y="50.416667"/>
      </g>
     </g>
    </g>
    <g id="ytick_8">
     <g id="line2d_44">
      <g>
       <use style="stroke:#000000;stroke-width:0.8;" x="451.524559" xlink:href="#m0229eccbe3" y="101.65"/>
      </g>
     </g>
    </g>
    <g id="ytick_9">
     <g id="line2d_45">
      <g>
       <use style="stroke:#000000;stroke-width:0.8;" x="451.524559" xlink:href="#m0229eccbe3" y="152.883333"/>
      </g>
     </g>
    </g>
    <g id="ytick_10">
     <g id="line2d_46">
      <g>
       <use style="stroke:#000000;stroke-width:0.8;" x="451.524559" xlink:href="#m0229eccbe3" y="204.116667"/>
      </g>
     </g>
    </g>
    <g id="ytick_11">
     <g id="line2d_47">
      <g>
       <use style="stroke:#000000;stroke-width:0.8;" x="451.524559" xlink:href="#m0229eccbe3" y="255.35"/>
      </g>
     </g>
    </g>
    <g id="ytick_12">
     <g id="line2d_48">
      <g>
       <use style="stroke:#000000;stroke-width:0.8;" x="451.524559" xlink:href="#m0229eccbe3" y="306.583333"/>
      </g>
     </g>
    </g>
   </g>
   <g id="line2d_49">
    <path clip-path="url(#p9e87e1de9f)" d="M 621.743593 35.046667 
L 633.802714 35.046667 
" style="fill:none;stroke:#424242;stroke-linecap:square;stroke-width:2.7;"/>
   </g>
   <g id="line2d_50">
    <path clip-path="url(#p9e87e1de9f)" d="M 622.049012 86.28 
L 635.953505 86.28 
" style="fill:none;stroke:#424242;stroke-linecap:square;stroke-width:2.7;"/>
   </g>
   <g id="line2d_51">
    <path clip-path="url(#p9e87e1de9f)" d="M 632.568245 137.513333 
L 634.715885 137.513333 
" style="fill:none;stroke:#424242;stroke-linecap:square;stroke-width:2.7;"/>
   </g>
   <g id="line2d_52">
    <path clip-path="url(#p9e87e1de9f)" d="M 639.376828 188.746667 
L 651.811527 188.746667 
" style="fill:none;stroke:#424242;stroke-linecap:square;stroke-width:2.7;"/>
   </g>
   <g id="line2d_53">
    <path clip-path="url(#p9e87e1de9f)" d="M 629.452363 239.98 
L 636.791361 239.98 
" style="fill:none;stroke:#424242;stroke-linecap:square;stroke-width:2.7;"/>
   </g>
   <g id="line2d_54">
    <path clip-path="url(#p9e87e1de9f)" d="M 673.843456 291.213333 
L 683.954699 291.213333 
" style="fill:none;stroke:#424242;stroke-linecap:square;stroke-width:2.7;"/>
   </g>
   <g id="line2d_55">
    <path clip-path="url(#p9e87e1de9f)" d="M 623.041545 45.293333 
L 647.662324 45.293333 
" style="fill:none;stroke:#424242;stroke-linecap:square;stroke-width:2.7;"/>
   </g>
   <g id="line2d_56">
    <path clip-path="url(#p9e87e1de9f)" d="M 635.80551 96.526667 
L 638.435767 96.526667 
" style="fill:none;stroke:#424242;stroke-linecap:square;stroke-width:2.7;"/>
   </g>
   <g id="line2d_57">
    <path clip-path="url(#p9e87e1de9f)" d="M 635.225408 147.76 
L 644.517294 147.76 
" style="fill:none;stroke:#424242;stroke-linecap:square;stroke-width:2.7;"/>
   </g>
   <g id="line2d_58">
    <path clip-path="url(#p9e87e1de9f)" d="M 646.55858 198.993333 
L 659.282704 198.993333 
" style="fill:none;stroke:#424242;stroke-linecap:square;stroke-width:2.7;"/>
   </g>
   <g id="line2d_59">
    <path clip-path="url(#p9e87e1de9f)" d="M 635.892895 250.226667 
L 653.295876 250.226667 
" style="fill:none;stroke:#424242;stroke-linecap:square;stroke-width:2.7;"/>
   </g>
   <g id="line2d_60">
    <path clip-path="url(#p9e87e1de9f)" d="M 664.585843 301.46 
L 684.272841 301.46 
" style="fill:none;stroke:#424242;stroke-linecap:square;stroke-width:2.7;"/>
   </g>
   <g id="line2d_61">
    <path clip-path="url(#p9e87e1de9f)" d="M 652.825386 55.54 
L 659.415001 55.54 
" style="fill:none;stroke:#424242;stroke-linecap:square;stroke-width:2.7;"/>
   </g>
   <g id="line2d_62">
    <path clip-path="url(#p9e87e1de9f)" d="M 656.574221 106.773333 
L 669.849975 106.773333 
" style="fill:none;stroke:#424242;stroke-linecap:square;stroke-width:2.7;"/>
   </g>
   <g id="line2d_63">
    <path clip-path="url(#p9e87e1de9f)" d="M 654.862154 158.006667 
L 673.055592 158.006667 
" style="fill:none;stroke:#424242;stroke-linecap:square;stroke-width:2.7;"/>
   </g>
   <g id="line2d_64">
    <path clip-path="url(#p9e87e1de9f)" d="M 676.940811 209.24 
L 692.139749 209.24 
" style="fill:none;stroke:#424242;stroke-linecap:square;stroke-width:2.7;"/>
   </g>
   <g id="line2d_65">
    <path clip-path="url(#p9e87e1de9f)" d="M 668.507831 260.473333 
L 680.733881 260.473333 
" style="fill:none;stroke:#424242;stroke-linecap:square;stroke-width:2.7;"/>
   </g>
   <g id="line2d_66">
    <path clip-path="url(#p9e87e1de9f)" d="M 683.340526 311.706667 
L 695.688294 311.706667 
" style="fill:none;stroke:#424242;stroke-linecap:square;stroke-width:2.7;"/>
   </g>
   <g id="line2d_67">
    <path clip-path="url(#p9e87e1de9f)" d="M 664.160852 65.786667 
L 668.15804 65.786667 
" style="fill:none;stroke:#424242;stroke-linecap:square;stroke-width:2.7;"/>
   </g>
   <g id="line2d_68">
    <path clip-path="url(#p9e87e1de9f)" d="M 662.540057 117.02 
L 679.32674 117.02 
" style="fill:none;stroke:#424242;stroke-linecap:square;stroke-width:2.7;"/>
   </g>
   <g id="line2d_69">
    <path clip-path="url(#p9e87e1de9f)" d="M 666.628539 168.253333 
L 684.270656 168.253333 
" style="fill:none;stroke:#424242;stroke-linecap:square;stroke-width:2.7;"/>
   </g>
   <g id="line2d_70">
    <path clip-path="url(#p9e87e1de9f)" d="M 685.487647 219.486667 
L 699.264265 219.486667 
" style="fill:none;stroke:#424242;stroke-linecap:square;stroke-width:2.7;"/>
   </g>
   <g id="line2d_71">
    <path clip-path="url(#p9e87e1de9f)" d="M 668.467585 270.72 
L 686.585373 270.72 
" style="fill:none;stroke:#424242;stroke-linecap:square;stroke-width:2.7;"/>
   </g>
   <g id="line2d_72">
    <path clip-path="url(#p9e87e1de9f)" d="M 682.417598 321.953333 
L 689.670687 321.953333 
" style="fill:none;stroke:#424242;stroke-linecap:square;stroke-width:2.7;"/>
   </g>
   <g id="patch_54">
    <path d="M 451.524559 332.2 
L 451.524559 24.8 
" style="fill:none;stroke:#000000;stroke-linecap:square;stroke-linejoin:miter;stroke-width:0.8;"/>
   </g>
   <g id="patch_55">
    <path d="M 451.524559 332.2 
L 711.65125 332.2 
" style="fill:none;stroke:#000000;stroke-linecap:square;stroke-linejoin:miter;stroke-width:0.8;"/>
   </g>
   <g id="text_23">
    <!-- split = test -->
    <g transform="translate(554.101186 18.8)scale(0.1 -0.1)">
     <use xlink:href="#DejaVuSans-115"/>
     <use x="52.099609" xlink:href="#DejaVuSans-112"/>
     <use x="115.576172" xlink:href="#DejaVuSans-108"/>
     <use x="143.359375" xlink:href="#DejaVuSans-105"/>
     <use x="171.142578" xlink:href="#DejaVuSans-116"/>
     <use x="210.351562" xlink:href="#DejaVuSans-32"/>
     <use x="242.138672" xlink:href="#DejaVuSans-61"/>
     <use x="325.927734" xlink:href="#DejaVuSans-32"/>
     <use x="357.714844" xlink:href="#DejaVuSans-116"/>
     <use x="396.923828" xlink:href="#DejaVuSans-101"/>
     <use x="458.447266" xlink:href="#DejaVuSans-115"/>
     <use x="510.546875" xlink:href="#DejaVuSans-116"/>
    </g>
   </g>
  </g>
  <g id="legend_1">
   <g id="text_24">
    <!-- Predictor -->
    <g transform="translate(750.239063 153.264062)scale(0.1 -0.1)">
     <defs>
      <path d="M 19.671875 64.796875 
L 19.671875 37.40625 
L 32.078125 37.40625 
Q 38.96875 37.40625 42.71875 40.96875 
Q 46.484375 44.53125 46.484375 51.125 
Q 46.484375 57.671875 42.71875 61.234375 
Q 38.96875 64.796875 32.078125 64.796875 
z
M 9.8125 72.90625 
L 32.078125 72.90625 
Q 44.34375 72.90625 50.609375 67.359375 
Q 56.890625 61.8125 56.890625 51.125 
Q 56.890625 40.328125 50.609375 34.8125 
Q 44.34375 29.296875 32.078125 29.296875 
L 19.671875 29.296875 
L 19.671875 0 
L 9.8125 0 
z
" id="DejaVuSans-80"/>
      <path d="M 45.40625 46.390625 
L 45.40625 75.984375 
L 54.390625 75.984375 
L 54.390625 0 
L 45.40625 0 
L 45.40625 8.203125 
Q 42.578125 3.328125 38.25 0.953125 
Q 33.9375 -1.421875 27.875 -1.421875 
Q 17.96875 -1.421875 11.734375 6.484375 
Q 5.515625 14.40625 5.515625 27.296875 
Q 5.515625 40.1875 11.734375 48.09375 
Q 17.96875 56 27.875 56 
Q 33.9375 56 38.25 53.625 
Q 42.578125 51.265625 45.40625 46.390625 
z
M 14.796875 27.296875 
Q 14.796875 17.390625 18.875 11.75 
Q 22.953125 6.109375 30.078125 6.109375 
Q 37.203125 6.109375 41.296875 11.75 
Q 45.40625 17.390625 45.40625 27.296875 
Q 45.40625 37.203125 41.296875 42.84375 
Q 37.203125 48.484375 30.078125 48.484375 
Q 22.953125 48.484375 18.875 42.84375 
Q 14.796875 37.203125 14.796875 27.296875 
z
" id="DejaVuSans-100"/>
     </defs>
     <use xlink:href="#DejaVuSans-80"/>
     <use x="58.552734" xlink:href="#DejaVuSans-114"/>
     <use x="97.416016" xlink:href="#DejaVuSans-101"/>
     <use x="158.939453" xlink:href="#DejaVuSans-100"/>
     <use x="222.416016" xlink:href="#DejaVuSans-105"/>
     <use x="250.199219" xlink:href="#DejaVuSans-99"/>
     <use x="305.179688" xlink:href="#DejaVuSans-116"/>
     <use x="344.388672" xlink:href="#DejaVuSans-111"/>
     <use x="405.570312" xlink:href="#DejaVuSans-114"/>
    </g>
   </g>
   <g id="patch_56">
    <path d="M 719.271875 167.942187 
L 739.271875 167.942187 
L 739.271875 160.942187 
L 719.271875 160.942187 
z
" style="fill:#436988;"/>
   </g>
   <g id="text_25">
    <!-- XGBR -->
    <g transform="translate(747.271875 167.942187)scale(0.1 -0.1)">
     <defs>
      <path d="M 6.296875 72.90625 
L 16.890625 72.90625 
L 35.015625 45.796875 
L 53.21875 72.90625 
L 63.8125 72.90625 
L 40.375 37.890625 
L 65.375 0 
L 54.78125 0 
L 34.28125 31 
L 13.625 0 
L 2.984375 0 
L 29 38.921875 
z
" id="DejaVuSans-88"/>
      <path d="M 59.515625 10.40625 
L 59.515625 29.984375 
L 43.40625 29.984375 
L 43.40625 38.09375 
L 69.28125 38.09375 
L 69.28125 6.78125 
Q 63.578125 2.734375 56.6875 0.65625 
Q 49.8125 -1.421875 42 -1.421875 
Q 24.90625 -1.421875 15.25 8.5625 
Q 5.609375 18.5625 5.609375 36.375 
Q 5.609375 54.25 15.25 64.234375 
Q 24.90625 74.21875 42 74.21875 
Q 49.125 74.21875 55.546875 72.453125 
Q 61.96875 70.703125 67.390625 67.28125 
L 67.390625 56.78125 
Q 61.921875 61.421875 55.765625 63.765625 
Q 49.609375 66.109375 42.828125 66.109375 
Q 29.4375 66.109375 22.71875 58.640625 
Q 16.015625 51.171875 16.015625 36.375 
Q 16.015625 21.625 22.71875 14.15625 
Q 29.4375 6.6875 42.828125 6.6875 
Q 48.046875 6.6875 52.140625 7.59375 
Q 56.25 8.5 59.515625 10.40625 
z
" id="DejaVuSans-71"/>
      <path d="M 19.671875 34.8125 
L 19.671875 8.109375 
L 35.5 8.109375 
Q 43.453125 8.109375 47.28125 11.40625 
Q 51.125 14.703125 51.125 21.484375 
Q 51.125 28.328125 47.28125 31.5625 
Q 43.453125 34.8125 35.5 34.8125 
z
M 19.671875 64.796875 
L 19.671875 42.828125 
L 34.28125 42.828125 
Q 41.5 42.828125 45.03125 45.53125 
Q 48.578125 48.25 48.578125 53.8125 
Q 48.578125 59.328125 45.03125 62.0625 
Q 41.5 64.796875 34.28125 64.796875 
z
M 9.8125 72.90625 
L 35.015625 72.90625 
Q 46.296875 72.90625 52.390625 68.21875 
Q 58.5 63.53125 58.5 54.890625 
Q 58.5 48.1875 55.375 44.234375 
Q 52.25 40.28125 46.1875 39.3125 
Q 53.46875 37.75 57.5 32.78125 
Q 61.53125 27.828125 61.53125 20.40625 
Q 61.53125 10.640625 54.890625 5.3125 
Q 48.25 0 35.984375 0 
L 9.8125 0 
z
" id="DejaVuSans-66"/>
      <path d="M 44.390625 34.1875 
Q 47.5625 33.109375 50.5625 29.59375 
Q 53.5625 26.078125 56.59375 19.921875 
L 66.609375 0 
L 56 0 
L 46.6875 18.703125 
Q 43.0625 26.03125 39.671875 28.421875 
Q 36.28125 30.8125 30.421875 30.8125 
L 19.671875 30.8125 
L 19.671875 0 
L 9.8125 0 
L 9.8125 72.90625 
L 32.078125 72.90625 
Q 44.578125 72.90625 50.734375 67.671875 
Q 56.890625 62.453125 56.890625 51.90625 
Q 56.890625 45.015625 53.6875 40.46875 
Q 50.484375 35.9375 44.390625 34.1875 
z
M 19.671875 64.796875 
L 19.671875 38.921875 
L 32.078125 38.921875 
Q 39.203125 38.921875 42.84375 42.21875 
Q 46.484375 45.515625 46.484375 51.90625 
Q 46.484375 58.296875 42.84375 61.546875 
Q 39.203125 64.796875 32.078125 64.796875 
z
" id="DejaVuSans-82"/>
     </defs>
     <use xlink:href="#DejaVuSans-88"/>
     <use x="68.505859" xlink:href="#DejaVuSans-71"/>
     <use x="145.996094" xlink:href="#DejaVuSans-66"/>
     <use x="214.599609" xlink:href="#DejaVuSans-82"/>
    </g>
   </g>
   <g id="patch_57">
    <path d="M 719.271875 182.620312 
L 739.271875 182.620312 
L 739.271875 175.620312 
L 719.271875 175.620312 
z
" style="fill:#808080;"/>
   </g>
   <g id="text_26">
    <!-- XGB_sequential -->
    <g transform="translate(747.271875 182.620312)scale(0.1 -0.1)">
     <defs>
      <path d="M 14.796875 27.296875 
Q 14.796875 17.390625 18.875 11.75 
Q 22.953125 6.109375 30.078125 6.109375 
Q 37.203125 6.109375 41.296875 11.75 
Q 45.40625 17.390625 45.40625 27.296875 
Q 45.40625 37.203125 41.296875 42.84375 
Q 37.203125 48.484375 30.078125 48.484375 
Q 22.953125 48.484375 18.875 42.84375 
Q 14.796875 37.203125 14.796875 27.296875 
z
M 45.40625 8.203125 
Q 42.578125 3.328125 38.25 0.953125 
Q 33.9375 -1.421875 27.875 -1.421875 
Q 17.96875 -1.421875 11.734375 6.484375 
Q 5.515625 14.40625 5.515625 27.296875 
Q 5.515625 40.1875 11.734375 48.09375 
Q 17.96875 56 27.875 56 
Q 33.9375 56 38.25 53.625 
Q 42.578125 51.265625 45.40625 46.390625 
L 45.40625 54.6875 
L 54.390625 54.6875 
L 54.390625 -20.796875 
L 45.40625 -20.796875 
z
" id="DejaVuSans-113"/>
     </defs>
     <use xlink:href="#DejaVuSans-88"/>
     <use x="68.505859" xlink:href="#DejaVuSans-71"/>
     <use x="145.996094" xlink:href="#DejaVuSans-66"/>
     <use x="214.599609" xlink:href="#DejaVuSans-95"/>
     <use x="264.599609" xlink:href="#DejaVuSans-115"/>
     <use x="316.699219" xlink:href="#DejaVuSans-101"/>
     <use x="378.222656" xlink:href="#DejaVuSans-113"/>
     <use x="441.699219" xlink:href="#DejaVuSans-117"/>
     <use x="505.078125" xlink:href="#DejaVuSans-101"/>
     <use x="566.601562" xlink:href="#DejaVuSans-110"/>
     <use x="629.980469" xlink:href="#DejaVuSans-116"/>
     <use x="669.189453" xlink:href="#DejaVuSans-105"/>
     <use x="696.972656" xlink:href="#DejaVuSans-97"/>
     <use x="758.251953" xlink:href="#DejaVuSans-108"/>
    </g>
   </g>
   <g id="patch_58">
    <path d="M 719.271875 197.576562 
L 739.271875 197.576562 
L 739.271875 190.576562 
L 719.271875 190.576562 
z
" style="fill:#a9a9a9;"/>
   </g>
   <g id="text_27">
    <!-- FNN -->
    <g transform="translate(747.271875 197.576562)scale(0.1 -0.1)">
     <defs>
      <path d="M 9.8125 72.90625 
L 51.703125 72.90625 
L 51.703125 64.59375 
L 19.671875 64.59375 
L 19.671875 43.109375 
L 48.578125 43.109375 
L 48.578125 34.8125 
L 19.671875 34.8125 
L 19.671875 0 
L 9.8125 0 
z
" id="DejaVuSans-70"/>
      <path d="M 9.8125 72.90625 
L 23.09375 72.90625 
L 55.421875 11.921875 
L 55.421875 72.90625 
L 64.984375 72.90625 
L 64.984375 0 
L 51.703125 0 
L 19.390625 60.984375 
L 19.390625 0 
L 9.8125 0 
z
" id="DejaVuSans-78"/>
     </defs>
     <use xlink:href="#DejaVuSans-70"/>
     <use x="57.519531" xlink:href="#DejaVuSans-78"/>
     <use x="132.324219" xlink:href="#DejaVuSans-78"/>
    </g>
   </g>
   <g id="patch_59">
    <path d="M 719.271875 212.254687 
L 739.271875 212.254687 
L 739.271875 205.254687 
L 719.271875 205.254687 
z
" style="fill:#d3d3d3;"/>
   </g>
   <g id="text_28">
    <!-- SVR -->
    <g transform="translate(747.271875 212.254687)scale(0.1 -0.1)">
     <defs>
      <path d="M 53.515625 70.515625 
L 53.515625 60.890625 
Q 47.90625 63.578125 42.921875 64.890625 
Q 37.9375 66.21875 33.296875 66.21875 
Q 25.25 66.21875 20.875 63.09375 
Q 16.5 59.96875 16.5 54.203125 
Q 16.5 49.359375 19.40625 46.890625 
Q 22.3125 44.4375 30.421875 42.921875 
L 36.375 41.703125 
Q 47.40625 39.59375 52.65625 34.296875 
Q 57.90625 29 57.90625 20.125 
Q 57.90625 9.515625 50.796875 4.046875 
Q 43.703125 -1.421875 29.984375 -1.421875 
Q 24.8125 -1.421875 18.96875 -0.25 
Q 13.140625 0.921875 6.890625 3.21875 
L 6.890625 13.375 
Q 12.890625 10.015625 18.65625 8.296875 
Q 24.421875 6.59375 29.984375 6.59375 
Q 38.421875 6.59375 43.015625 9.90625 
Q 47.609375 13.234375 47.609375 19.390625 
Q 47.609375 24.75 44.3125 27.78125 
Q 41.015625 30.8125 33.5 32.328125 
L 27.484375 33.5 
Q 16.453125 35.6875 11.515625 40.375 
Q 6.59375 45.0625 6.59375 53.421875 
Q 6.59375 63.09375 13.40625 68.65625 
Q 20.21875 74.21875 32.171875 74.21875 
Q 37.3125 74.21875 42.625 73.28125 
Q 47.953125 72.359375 53.515625 70.515625 
z
" id="DejaVuSans-83"/>
      <path d="M 28.609375 0 
L 0.78125 72.90625 
L 11.078125 72.90625 
L 34.1875 11.53125 
L 57.328125 72.90625 
L 67.578125 72.90625 
L 39.796875 0 
z
" id="DejaVuSans-86"/>
     </defs>
     <use xlink:href="#DejaVuSans-83"/>
     <use x="63.476562" xlink:href="#DejaVuSans-86"/>
     <use x="131.884766" xlink:href="#DejaVuSans-82"/>
    </g>
   </g>
  </g>
 </g>
 <defs>
  <clipPath id="p93aded92c2">
   <rect height="307.4" width="260.126691" x="168.917244" y="24.8"/>
  </clipPath>
  <clipPath id="p9e87e1de9f">
   <rect height="307.4" width="260.126691" x="451.524559" y="24.8"/>
  </clipPath>
 </defs>
</svg>
